<svg width="48" height="48" viewBox="0 0 48 48" fill="none" xmlns="http://www.w3.org/2000/svg">
<path d="M0 43C0 40.2386 2.23858 38 5 38H43C45.7614 38 48 40.2386 48 43C48 45.7614 45.7614 48 43 48H5C2.23858 48 0 45.7614 0 43Z" fill="white"/>
<path d="M0 24C0 21.2386 2.23858 19 5 19H43C45.7614 19 48 21.2386 48 24C48 26.7614 45.7614 29 43 29H5C2.23858 29 0 26.7614 0 24Z" fill="white"/>
<path d="M0 5C0 2.23858 2.23858 0 5 0H43C45.7614 0 48 2.23858 48 5C48 7.76142 45.7614 10 43 10H5C2.23858 10 0 7.76142 0 5Z" fill="white"/>
</svg>
